HIERARCHY
ROOT Hips
{
  OFFSET 74.0196 97.4445 -31.1285
  CHANNELS 6 Xposition Yposition Zposition Zrotation Xrotation Yrotation
  JOINT RightUpLeg
  {
    OFFSET -8.9458 -8.66707 0.101652
    CHANNELS 3 Zrotation Xrotation Yrotation
    JOINT RightLeg
    {
      OFFSET -2.94875e-013 -44.4227 1.3727
      CHANNELS 3 Zrotation Xrotation Yrotation
      JOINT RightFoot
      {
        OFFSET 0.253549 -42.0924 -1.46059
        CHANNELS 3 Zrotation Xrotation Yrotation
        JOINT RightToes
        {
          OFFSET 0.04 -4.41509 8.4991
          CHANNELS 3 Zrotation Xrotation Yrotation
          End Site
          {
            OFFSET -0.08 -0.137448 9.77979
          }
        }
      }
    }
  }
  JOINT Spine
  {
    OFFSET -5.68434e-014 11.8905 -6.39488e-014
    CHANNELS 3 Zrotation Xrotation Yrotation
    JOINT Spine1
    {
      OFFSET 5.68434e-014 25.6574 0.127663
      CHANNELS 3 Zrotation Xrotation Yrotation
      JOINT HEad
      {
        OFFSET 4.26326e-014 8.73416 0.011341
        CHANNELS 3 Zrotation Xrotation Yrotation
        End Site
        {
          OFFSET -0.29 12.7742 2.51395
        }
      }
      JOINT LeftShoulder1
      {
        OFFSET 8.99 -0.362252 -0.22
        CHANNELS 3 Zrotation Xrotation Yrotation
        JOINT LeftArm
        {
          OFFSET 10.2827 -0.00338 0.322123
          CHANNELS 3 Zrotation Xrotation Yrotation
          JOINT LeftForeArm
          {
            OFFSET 32.7669 0.099144 -1.42434
            CHANNELS 3 Zrotation Xrotation Yrotation
            JOINT LeftHand
            {
              OFFSET 27.5643 0.085362 1.02216
              CHANNELS 3 Zrotation Xrotation Yrotation
              End Site
              {
                OFFSET 16.7443 -0.6 1.50291
              }
            }
          }
        }
      }
      JOINT RightShoulder
      {
        OFFSET -8.99 -0.362252 -0.22
        CHANNELS 3 Zrotation Xrotation Yrotation
        JOINT RightArm
        {
          OFFSET -10.2827 -0.00338 0.322123
          CHANNELS 3 Zrotation Xrotation Yrotation
          JOINT RightForeArm
          {
            OFFSET -32.8971 0.099144 -1.42434
            CHANNELS 3 Zrotation Xrotation Yrotation
            JOINT RightHand
            {
              OFFSET -27.4921 0.085362 1.02216
              CHANNELS 3 Zrotation Xrotation Yrotation
              End Site
              {
                OFFSET -16.6312 -0.6 1.50291
              }
            }
          }
        }
      }
    }
  }
  JOINT LeftUpLeg
  {
    OFFSET 8.9458 -8.66707 0.101652
    CHANNELS 3 Zrotation Xrotation Yrotation
    JOINT LeftLeg
    {
      OFFSET 7.10543e-014 -44.4227 1.3727
      CHANNELS 3 Zrotation Xrotation Yrotation
      JOINT LeftFoot
      {
        OFFSET -0.253549 -42.0924 -1.46059
        CHANNELS 3 Zrotation Xrotation Yrotation
        JOINT LeftToes
        {
          OFFSET -0.04 -4.41509 8.4991
          CHANNELS 3 Zrotation Xrotation Yrotation
          End Site
          {
            OFFSET 0.08 -0.047448 9.77979
          }
        }
      }
    }
  }
}
MOTION
Frames:	21
Frame Time:	0.0166667
42.982 91.2706 42.3789 6.27164 -0.651099 -153.436 -26.1212 -15.1839 1.08831 11.6757 42.2859 -13.167 6.52927 -12.4037 0.0713171 -6.2493 -11.1006 -5.29236 2.73282 3.75312 4.29312 4.20636 7.61087 8.63348 -11.6539 1.79505 33.9303 -5.03302e-021 -3.88251e-019 1.21329e-020 -2.66121 -24.7885 -6.16323 -8.49685 -18.2536 -35.7492 18.3638 7.57192 -10.7562 11.0944 3.45296 21.3596 70.3337 -22.5372 44.6 -13.8171 44.7472 132.943 -10.62 14.0052 -50.1894 24.3884 -19.6901 -0.0646124 11.6905 33.7941 -31.8319 -16.7419 -13.8963 -0.864262 13.8068 -18.7203 -1.27247 
43.4152 90.8665 42.2049 5.32964 -0.46723 -153.283 -26.8432 -16.5188 1.61142 10.925 40.2684 -12.7351 5.82133 -13.7802 0.103926 -6.0158 -10.7402 -5.1669 2.89943 4.20607 3.80524 4.75049 8.48606 7.57225 -12.4428 2.16829 35.2406 -5.03302e-021 -3.88251e-019 1.21329e-020 -2.86646 -19.8669 -7.73954 -8.45681 -24.9621 -29.8638 15.8707 8.41523 -6.93437 11.8681 3.61111 21.3369 69.4337 -21.6075 42.2811 -14.2156 43.2865 134.281 -9.84885 13.7033 -50.3809 24.0747 -19.4882 0.852998 12.0532 34.059 -33.4639 -17.015 -13.9731 -0.891007 14.0859 -19.093 -1.26369 
43.9901 90.4417 41.9154 4.4448 -0.396456 -153.102 -27.2491 -17.5682 1.8808 9.97262 38.1255 -11.2433 4.89978 -14.1111 0.0660818 -6.5824 -11.6119 -5.24758 2.8919 4.6087 3.4737 5.1151 9.27742 6.81954 -12.1755 2.43168 35.6919 -5.03302e-021 -3.88251e-019 1.21329e-020 -4.0295 -18.6767 -8.02755 -9.47375 -27.4764 -29.622 15.1098 8.93696 -3.38007 12.2611 3.65587 21.0999 69.1122 -20.3543 41.1075 -14.6674 41.8967 135.539 -9.06126 13.4072 -50.757 23.813 -19.1753 1.57148 12.3338 34.0003 -34.6977 -17.1688 -14.165 -0.928367 14.2197 -19.2727 -1.26257 
44.6949 90.0272 41.474 3.64838 -0.372779 -152.747 -27.3105 -18.2989 1.82955 8.89954 36.3682 -9.14814 3.73629 -13.4468 -0.0184243 -7.88558 -13.5867 -5.66547 2.82621 4.95016 3.27945 5.33354 9.96574 6.36472 -11.1452 2.68574 35.3409 -5.03302e-021 -3.88251e-019 1.21329e-020 -6.37842 -21.4779 -7.4521 -11.3552 -25.2659 -35.2752 17.392 9.29409 0.146737 12.4335 3.63651 20.7542 69.0618 -19.0228 40.6462 -15.1575 40.4694 136.831 -8.27133 13.1171 -51.3038 23.575 -18.7494 1.95515 12.5876 33.5712 -35.5688 -17.2068 -14.3527 -0.958616 14.2727 -19.3225 -1.20611 
45.5189 89.6507 40.8665 2.95269 -0.341076 -152.081 -27.0643 -18.7283 1.46762 7.80521 35.4276 -7.0325 2.3609 -11.9439 -0.110684 -9.91253 -16.5449 -6.55434 2.82568 5.23275 3.19511 5.46386 10.5412 6.16219 -9.77724 2.98667 34.3686 -5.03302e-021 -3.88251e-019 1.21329e-020 -9.51463 -30.1168 -6.05619 -13.9375 -15.5834 -45.504 22.8725 9.57118 2.62844 12.5032 3.59294 20.3921 69.1103 -17.8354 40.524 -15.6434 38.9986 138.14 -7.50759 12.836 -51.9419 23.3372 -18.2424 1.91983 12.8739 32.7508 -36.1934 -17.1662 -14.3919 -0.961975 14.3059 -19.3024 -1.03587 
46.4599 89.3238 40.0947 2.344 -0.268152 -151.009 -26.6341 -18.8741 0.86962 6.85121 35.4865 -5.48324 0.874675 -9.79037 -0.16943 -12.7149 -20.3866 -7.97649 2.95539 5.46024 3.19294 5.57041 10.9992 6.152 -8.52757 3.36347 33.0554 -5.03302e-021 -3.88251e-019 1.21329e-020 -12.2049 -46.8361 -3.02391 -16.6347 4.74458 -57.3365 30.0117 9.23256 1.73719 12.5562 3.55555 20.0919 69.188 -16.9622 40.4766 -16.0565 37.5916 139.357 -6.83189 12.5819 -52.5497 23.099 -17.709 1.45997 13.2254 31.5613 -36.7389 -17.0949 -14.1614 -0.923468 14.3481 -19.2396 -0.721386 
47.5218 89.0417 39.1701 1.78625 -0.148745 -149.497 -26.2035 -18.7241 0.129317 6.25758 36.4253 -4.96184 -0.55426 -7.17557 -0.166199 -16.3147 -24.9176 -9.90382 3.20309 5.62936 3.24903 5.70588 11.3368 6.27904 -7.78377 3.83572 31.7132 -5.03302e-021 -3.88251e-019 1.21329e-020 -9.23186 -70.3007 6.57852 -19.4174 32.6405 -68.0964 34.9574 7.31315 -4.15569 12.6555 3.54668 19.9145 69.2758 -16.5026 40.3682 -16.3328 36.4243 140.35 -6.32882 12.3877 -53.0084 22.8841 -17.2124 0.654197 13.6277 30.0646 -37.3735 -17.0295 -13.5914 -0.835593 14.3781 -19.1119 -0.276748 
48.7056 88.7957 38.1126 1.23633 -0.00646604 -147.58 -25.9455 -18.2632 -0.681305 6.24015 37.9232 -5.68751 -1.75145 -4.32681 -0.0985787 -20.5815 -29.7544 -12.2388 3.50749 5.73295 3.34848 5.89763 11.5532 6.50559 -7.78869 4.42071 30.6021 -5.03302e-021 -3.88251e-019 1.21329e-020 50.3684 -85.7979 72.7564 -21.9839 52.9904 -78.2548 35.1982 4.90649 -11.7951 12.8458 3.58091 19.8954 69.3632 -16.4807 40.1788 -16.4454 35.6582 141.027 -6.06713 12.285 -53.249 22.7253 -16.8123 -0.353707 14.0172 28.3451 -38.2016 -16.9893 -12.6611 -0.696984 14.3289 -18.8566 0.234468 
49.9991 88.5823 36.9504 0.667833 0.116773 -145.357 -25.949 -17.5173 -1.51546 6.92445 39.6233 -7.58946 -2.63377 -1.53252 0.00976615 -25.1902 -34.3855 -14.8401 3.81768 5.76728 3.48687 6.14551 11.6522 6.81413 -8.59598 5.12333 29.8641 -5.03302e-021 -3.88251e-019 1.21329e-020 -15.0461 -86.753 11.6899 -17.6287 53.3137 -93.794 33.214 4.25829 -14.9952 13.1512 3.6641 20.0362 69.433 -16.851 39.9691 -16.4193 35.3679 141.372 -6.06374 12.2849 -53.2752 22.6513 -16.5668 -1.39308 14.3003 26.5165 -39.2101 -16.9778 -11.3888 -0.51063 14.1131 -18.3996 0.713195 
51.3754 88.4121 35.7157 0.0719313 0.17141 -142.961 -26.1992 -16.5623 -2.33229 8.28295 41.2397 -10.368 -3.25672 0.915789 0.128511 -29.7057 -38.3584 -17.5341 4.09835 5.73918 3.66768 6.41241 11.6475 7.20045 -10.0611 5.91482 29.4933 -5.03302e-021 -3.88251e-019 1.21329e-020 -53.1097 -81.4573 -23.0318 -13.9299 51.7332 -106.414 30.8365 4.55648 -15.4926 13.5701 3.79166 20.3007 69.471 -17.5139 39.8329 -16.3239 35.5181 141.432 -6.27721 12.3728 -53.1466 22.6615 -16.5242 -2.31065 14.3764 24.7137 -40.2403 -16.9909 -9.808 -0.280939 13.6636 -17.6931 1.05987 
52.802 88.3153 34.4354 -0.548546 0.110702 -140.524 -26.5974 -15.4942 -3.08356 10.1302 42.5832 -13.6292 -3.76015 2.79515 0.239818 -33.6943 -41.405 -20.111 4.30071 5.66736 3.89258 6.63773 11.5626 7.65958 -11.8787 6.71428 29.3538 -5.03302e-021 -3.88251e-019 1.21329e-020 -60.6017 -74.4847 -28.0766 -10.7598 49.1751 -115.578 29.1452 5.14021 -14.4587 14.0674 3.94721 20.6219 69.4868 -18.3364 39.8522 -16.246 35.9953 141.298 -6.63157 12.5177 -52.9398 22.7149 -16.7018 -3.00512 14.1555 23.0539 -40.994 -17.0276 -7.93868 -0.0101401 12.9721 -16.7448 1.21858 
54.2391 88.3256 33.1304 -1.16676 -0.085153 -138.14 -26.99 -14.4032 -3.71772 12.1872 43.5681 -17.0051 -4.26454 3.95899 0.336479 -36.7768 -43.4322 -22.3214 4.39911 5.57156 4.14997 6.76081 11.4244 8.17284 -13.67 7.39231 29.2422 -5.03302e-021 -3.88251e-019 1.21329e-020 -63.4621 -68.4197 -29.0037 -8.58927 46.7489 -120.881 28.4702 5.54801 -13.3122 14.5776 4.10481 20.9221 69.5205 -19.1777 40.0648 -16.2525 36.6586 141.062 -7.05015 12.6881 -52.7115 22.7611 -17.118 -3.44332 13.5814 21.6989 -41.0992 -17.0594 -5.82899 0.295357 12.0937 -15.6133 1.2081 
55.6426 88.4719 31.8158 -1.7478 -0.409121 -135.861 -27.2291 -13.3481 -4.18982 14.1782 44.1824 -20.2174 -4.80508 4.31533 0.408487 -38.6382 -44.4449 -23.8966 4.37232 5.46996 4.41657 6.73794 11.2573 8.70353 -15.0961 7.80118 28.9699 -5.03302e-021 -3.88251e-019 1.21329e-020 -65.0145 -64.5974 -28.7584 -7.58412 45.3247 -122.573 28.7682 5.63606 -12.7745 15.0205 4.23563 21.1363 69.6258 -19.9102 40.4489 -16.3606 37.3754 140.802 -7.47414 12.8591 -52.4872 22.7441 -17.7965 -3.65016 12.6365 20.8577 -40.1884 -17.0012 -3.5944 0.615463 11.1079 -14.3644 1.11921 
56.9694 88.7753 30.5012 -2.25002 -0.831837 -133.703 -27.2011 -12.3446 -4.46997 15.9069 44.4338 -23.0953 -5.32928 3.81599 0.437022 -39.0476 -44.4746 -24.5991 4.20175 5.37459 4.66308 6.55542 11.0748 9.20396 -15.9479 7.81937 28.4282 -5.03302e-021 -3.88251e-019 1.21329e-020 -65.5594 -63.1489 -27.549 -7.48795 44.9859 -121.397 29.7309 5.49105 -12.7425 15.33 4.31772 21.23 69.8352 -20.4335 40.9238 -16.5373 38.0278 140.571 -7.8599 13.0124 -52.2741 22.6281 -18.7504 -3.67276 11.332 20.7255 -37.993 -16.7167 -1.45171 0.906395 10.0519 -13.0063 1.08101 
58.1802 89.2461 29.1933 -2.62761 -1.31025 -131.653 -26.8433 -11.3714 -4.54964 17.2841 44.3153 -25.561 -5.72801 2.45812 0.400741 -37.9002 -43.5373 -24.2856 3.8813 5.2881 4.86367 6.2315 10.8756 9.62954 -16.1755 7.3902 27.6114 -5.03302e-021 -3.88251e-019 1.21329e-020 -64.6765 -63.2446 -25.1526 -7.94485 45.2369 -118.296 30.8041 5.32241 -12.7317 15.4789 4.34391 21.2029 70.1317 -20.6809 41.3692 -16.7249 38.5043 140.408 -8.1654 13.131 -52.0851 22.4119 -19.9655 -3.53734 9.70074 21.4286 -34.4498 -16.0704 0.257446 1.10051 8.87384 -11.4473 1.20953 
59.2317 89.8681 27.9064 -2.83492 -1.78728 -129.705 -26.1526 -10.395 -4.44554 18.3181 43.8241 -27.5985 -5.86706 0.279866 0.28786 -35.2551 -41.6167 -22.9545 3.46746 5.19768 5.0064 5.8113 10.6422 9.95304 -15.8595 6.54002 26.6016 -5.03302e-021 -3.88251e-019 1.21329e-020 -62.0579 -63.8106 -21.4878 -8.81861 45.5803 -114.18 31.3926 5.27134 -12.5767 15.488 4.32332 21.0831 70.4462 -20.6207 41.6558 -16.878 38.6969 140.353 -8.34259 13.1976 -51.9535 22.1287 -21.425 -3.22018 7.80474 23.0801 -29.7886 -15.0091 1.07787 1.12837 7.46311 -9.55078 1.54832 
60.0978 90.6204 26.6525 -2.82732 -2.20934 -127.849 -25.1545 -9.38239 -4.20207 19.0564 42.9375 -29.2357 -5.63516 -2.61298 0.110818 -31.3357 -38.6666 -20.7599 3.03338 5.07997 5.09376 5.35131 10.3468 10.1721 -15.1531 5.36884 25.5264 -5.03302e-021 -3.88251e-019 1.21329e-020 -57.9935 -64.1177 -16.8991 -10.1776 45.7641 -109.769 31.1959 5.28395 -12.644 15.4138 4.27613 20.9134 70.6848 -20.2546 41.6797 -16.9881 38.5124 140.449 -8.3439 13.1963 -51.9297 21.8359 -23.0406 -2.63692 5.73083 25.5884 -24.5149 -13.7061 0.689419 0.983513 5.77243 -7.29454 2.02959 
60.7825 91.4912 25.4335 -2.60156 -2.5687 -126.074 -23.9269 -8.30581 -3.87725 19.5381 41.6206 -30.5266 -4.96405 -6.03395 -0.090037 -26.4876 -34.6355 -17.9916 2.56312 4.92624 5.14069 4.87753 9.97086 10.3082 -14.2268 4.02102 24.5103 -5.03302e-021 -3.88251e-019 1.21329e-020 -53.2825 -63.9148 -12.0786 -12.0094 45.7096 -105.628 30.3152 5.22934 -13.3673 15.3225 4.22446 20.7371 70.7721 -19.615 41.3886 -17.0833 37.8951 140.737 -8.13978 13.1181 -52.0612 21.5335 -24.6291 -1.69168 3.59972 28.5985 -19.2755 -12.5154 -0.830271 0.739034 3.94496 -4.9047 2.49928 
61.2964 92.447 24.2572 -2.16641 -2.8605 -124.371 -22.5537 -7.16962 -3.54192 19.7935 39.9028 -31.5186 -3.822 -9.74923 -0.256161 -21.1065 -29.512 -15.0309 2.09137 4.72381 5.17016 4.40966 9.50068 10.3985 -13.2333 2.64765 23.6366 -5.03302e-021 -3.88251e-019 1.21329e-020 -48.7768 -63.2649 -7.71401 -14.0785 45.4329 -102.217 29.0553 5.0581 -14.8369 15.263 4.18446 20.5872 70.686 -18.7641 40.7901 -17.2049 36.852 141.229 -7.73823 12.9659 -52.3647 21.2002 -26.0656 -0.337793 1.56747 31.8203 -14.6784 -11.7265 -3.06887 0.475667 2.28827 -2.78281 2.80929 
61.6639 93.4475 23.1282 -1.55168 -3.09385 -122.725 -21.1151 -6.00351 -3.26628 19.8445 37.8688 -32.2557 -2.22337 -13.4879 -0.325618 -15.5686 -23.3967 -12.2962 1.63973 4.46975 5.20489 3.95087 8.93792 10.4835 -12.2909 1.37756 22.9297 -5.03302e-021 -3.88251e-019 1.21329e-020 -45.0674 -62.3429 -4.25081 -15.968 45.0054 -99.9051 27.7519 4.80841 -16.7868 15.2512 4.1622 20.48 70.4694 -17.7923 39.9435 -17.3789 35.4671 141.897 -7.19329 12.7575 -52.808 20.7872 -27.271 1.36812 -0.237053 34.9987 -11.0927 -11.4423 -5.40245 0.244181 1.10066 -1.28437 2.89974 
61.9181 94.4501 22.0481 -0.801438 -3.28182 -121.113 -19.6785 -4.85877 -3.1065 19.7262 35.6568 -32.7885 -0.231642 -16.9748 -0.253425 -10.1832 -16.5818 -10.1723 1.21402 4.17322 5.26124 3.49508 8.30251 10.5958 -11.4785 0.300499 22.3607 -5.03302e-021 -3.88251e-019 1.21329e-020 -42.4596 -61.3148 -1.89205 -17.1724 44.5103 -98.9759 26.7429 4.53402 -18.7595 15.2718 4.15464 20.4165 70.2108 -16.8152 38.9399 -17.5985 33.898 142.677 -6.59763 12.5251 -53.3111 20.2421 -28.2105 3.26227 -1.77645 37.935 -8.56872 -11.5772 -7.24747 0.0700444 0.532046 -0.574961 2.80715 
